<?xml version="1.0" encoding="UTF-8"?>
<svg xmlns="http://www.w3.org/2000/svg" viewBox="0 2093.62 1477.07 613.07">
  <defs>
    <style>
      .cls-1 { fill: #030617; }
      .cls-2 { fill: #f8f9f7; }
      .cls-3 { fill: #2d4198; }
    </style>
  </defs>
  <rect class="cls-1" y="2093.62" width="1477.07" height="613.07"/>
  <g>
    <polygon class="cls-3" points="1151.01 2142.94 1199.07 2260.51 1248.41 2285.5 1280.44 2291.91 1280.44 2226.87 1264.42 2197.08 1151.01 2142.94"/>
    <polygon class="cls-3" points="1293.26 2244.49 1295.18 2291.91 1386.16 2248.02 1433.26 2135.57 1328.18 2183.62 1293.26 2244.49"/>
    <polygon class="cls-3" points="1328.18 2287.42 1300.63 2305.68 1309.6 2328.11 1351.89 2347.65 1363.26 2330.35 1359.25 2293.51 1328.18 2287.42"/>
  </g>
  <g>
    <polygon class="cls-2" points="1228.46 2305.64 1292.14 2305.64 1292.14 2554.19 1228.46 2555.64 1228.46 2305.64"/>
    <polygon class="cls-2" points="74.59 2305.64 143.51 2305.64 362.21 2482.7 362.82 2305.64 429.72 2305.64 429.72 2555.64 360.81 2555.64 143.51 2378.58 143.51 2555.64 74.59 2555.64 74.59 2305.64"/>
    <polygon class="cls-2" points="451.99 2555.64 627.04 2305.64 706.27 2305.64 881.32 2555.64 802.1 2555.64 666.66 2355.49 531.22 2555.64 451.99 2555.64"/>
    <polygon class="cls-2" points="774.65 2305.64 949.7 2555.64 1028.92 2555.64 1203.97 2305.64 1124.75 2305.64 989.31 2505.78 853.87 2305.64 774.65 2305.64"/>
  </g>
  <g>
    <polygon class="cls-3" points="346.68 2664.74 347.27 2664.74 395.19 2664.74 395.19 2654.21 351.39 2654.21 347.27 2650.54 347.27 2628.92 351.39 2625.27 395.19 2625.27 395.19 2614.74 347.27 2614.74 335 2625.27 335 2654.21 346.68 2664.74"/>
    <polygon class="cls-3" points="485.19 2614.74 497.48 2614.74 497.48 2634.07 537.09 2634.07 537.09 2614.74 550.22 2614.74 550.22 2664.74 537.09 2664.74 537.09 2644.34 497.48 2644.34 497.48 2664.74 485.19 2664.74 485.19 2614.74"/>
    <polygon class="cls-3" points="640.22 2664.74 675.23 2614.74 691.08 2614.74 726.09 2664.74 710.24 2664.74 683.15 2624.71 656.07 2664.74 640.22 2664.74"/>
    <polygon class="cls-3" points="864.49 2614.74 864.49 2624.59 828.42 2624.59 828.42 2637.03 864.49 2637.03 864.49 2624.96 875.18 2625.01 875.18 2637.03 863.11 2646.97 879.77 2664.74 864 2664.74 849.63 2647.63 828.42 2647.71 828.42 2664.74 816.09 2664.74 816.09 2614.74 864.49 2614.74"/>
    <polygon class="cls-3" points="969.77 2614.74 969.77 2625.12 994.05 2625.12 994.05 2664.74 1006.83 2664.74 1006.83 2625.1 1031.73 2625.18 1031.73 2614.74 969.77 2614.74"/>
  </g>
</svg>
